<?xml version="1.0" standalone="no"?>
<!DOCTYPE svg PUBLIC "-//W3C//DTD SVG 20010904//EN"
 "http://www.w3.org/TR/2001/REC-SVG-20010904/DTD/svg10.dtd">
<svg version="1.0" xmlns="http://www.w3.org/2000/svg"
 width="380.000000pt" height="228.000000pt" viewBox="0 0 380.000000 228.000000"
 preserveAspectRatio="xMidYMid meet">

<g transform="translate(0.000000,228.000000) scale(0.100000,-0.100000)"
fill="#000000" stroke="none">
<path d="M1897 1630 c-112 -14 -203 -47 -372 -135 -88 -46 -176 -86 -195 -89
-19 -3 -127 -13 -240 -21 -380 -28 -580 -68 -707 -142 -39 -23 -63 -57 -49
-70 3 -4 6 -1 6 5 0 7 5 12 11 12 5 0 8 -4 4 -10 -9 -14 6 -61 19 -57 6 2 10
12 8 21 -2 12 3 16 15 14 21 -4 31 31 11 44 -10 8 -10 9 2 5 16 -4 18 -39 5
-72 l-8 -20 23 20 c20 17 22 17 17 3 -4 -12 -2 -15 9 -11 9 3 13 12 10 22 -4
11 -2 10 9 -3 10 -14 15 -15 15 -6 0 10 3 11 11 3 9 -9 18 -8 36 4 38 25 51 3
23 -41 -25 -41 -50 -46 -118 -22 -22 8 -62 16 -88 17 l-49 3 -9 -73 c-4 -40
-5 -97 -1 -127 6 -52 8 -54 43 -63 79 -19 216 -29 240 -18 20 9 26 8 35 -8 13
-24 43 -54 82 -82 17 -12 23 -21 15 -21 -37 2 -123 -2 -119 -6 17 -18 596 -31
1324 -31 479 0 1136 11 1205 19 14 2 36 5 50 6 33 4 -79 18 -155 19 l-60 1 33
26 c17 14 44 45 58 70 21 36 31 44 54 44 16 0 30 -5 32 -12 3 -8 43 -5 147 11
160 25 171 28 171 45 0 7 9 32 21 56 15 31 19 53 15 79 -4 20 -10 59 -15 86
-12 74 -29 105 -60 106 -68 3 -80 4 -85 10 -4 3 17 6 46 5 52 0 53 0 56 32 3
28 0 32 -22 32 -14 0 -28 5 -31 10 -4 6 5 10 19 10 19 0 27 7 32 26 10 41 -26
63 -101 64 -99 0 -300 37 -468 85 -291 82 -510 120 -752 129 -77 2 -171 1
-208 -4z m-314 -227 c-7 -2 -19 -2 -25 0 -7 3 -2 5 12 5 14 0 19 -2 13 -5z
m-86 -9 c-3 -3 -12 -4 -19 -1 -8 3 -5 6 6 6 11 1 17 -2 13 -5z m1046 -1 c-13
-2 -33 -2 -45 0 -13 2 -3 4 22 4 25 0 35 -2 23 -4z m-1296 -69 c-3 -3 -12 -4
-19 -1 -8 3 -5 6 6 6 11 1 17 -2 13 -5z m1974 -71 c-10 -4 -10 -7 -1 -13 7 -4
-19 -15 -60 -25 -40 -10 -80 -25 -90 -35 -16 -16 -18 -15 -43 6 -25 21 -25 24
-9 33 20 12 8 14 -16 3 -10 -5 -31 -3 -50 3 -29 10 -22 11 65 12 153 2 183 4
189 14 3 5 11 9 17 8 8 0 7 -3 -2 -6z m49 -3 c0 -5 -8 -10 -17 -10 -15 0 -16
2 -3 10 19 12 20 12 20 0z m-559 -30 c-25 -22 -48 -25 -71 -10 -17 11 -10 13
36 10 18 -1 35 3 39 9 3 6 9 11 13 11 4 -1 -4 -10 -17 -20z m-2221 -30 c0 -11
-4 -20 -9 -20 -5 0 -7 9 -4 20 3 11 7 20 9 20 2 0 4 -9 4 -20z m110 -30 c0 -5
-2 -10 -4 -10 -3 0 -8 5 -11 10 -3 6 -1 10 4 10 6 0 11 -4 11 -10z m273 -154
c4 -10 1 -13 -8 -9 -8 3 -12 9 -9 14 7 12 11 11 17 -5z m2017 4 c0 -5 -5 -10
-11 -10 -5 0 -7 5 -4 10 3 6 8 10 11 10 2 0 4 -4 4 -10z m-2110 -4 c0 -3 -4
-8 -10 -11 -5 -3 -10 -1 -10 4 0 6 5 11 10 11 6 0 10 -2 10 -4z m2020 0 c0 -3
-4 -8 -10 -11 -5 -3 -10 -1 -10 4 0 6 5 11 10 11 6 0 10 -2 10 -4z m-2075 -26
c3 -5 1 -10 -4 -10 -6 0 -11 5 -11 10 0 6 2 10 4 10 3 0 8 -4 11 -10z m2020 0
c3 -5 1 -10 -4 -10 -6 0 -11 5 -11 10 0 6 2 10 4 10 3 0 8 -4 11 -10z m186
-85 c5 4 9 1 9 -5 0 -17 -25 -6 -26 11 -1 9 1 10 3 1 3 -7 9 -10 14 -7z
m-2016 -5 c3 -5 2 -10 -4 -10 -5 0 -13 5 -16 10 -3 6 -2 10 4 10 5 0 13 -4 16
-10z m-146 -40 c-22 -14 -34 2 -13 17 13 10 20 10 23 2 2 -6 -3 -15 -10 -19z
m116 20 c3 -5 1 -10 -4 -10 -6 0 -11 5 -11 10 0 6 2 10 4 10 3 0 8 -4 11 -10z
m1915 -5 c0 -9 -9 -15 -22 -15 -22 1 -23 1 -4 15 25 19 26 19 26 0z m-1690
-45 c0 -13 1405 -13 1470 -1 40 8 46 7 59 -12 9 -12 28 -33 43 -47 l27 -25
-842 -2 c-463 -1 -859 -4 -879 -5 -44 -4 -48 3 -14 26 14 8 33 29 42 46 15 25
25 30 56 30 21 0 38 -4 38 -10z"/>
<path d="M3040 1211 c0 -6 4 -13 10 -16 6 -3 7 1 4 9 -7 18 -14 21 -14 7z"/>
<path d="M320 1146 c0 -8 4 -17 9 -20 5 -4 7 3 4 14 -6 23 -13 26 -13 6z"/>
</g>
</svg>
