<?xml version="1.0" standalone="no"?>
<!DOCTYPE svg PUBLIC "-//W3C//DTD SVG 20010904//EN"
 "http://www.w3.org/TR/2001/REC-SVG-20010904/DTD/svg10.dtd">
<svg version="1.0" xmlns="http://www.w3.org/2000/svg"
 width="704.000000pt" height="672.000000pt" viewBox="0 0 704.000000 672.000000"
 preserveAspectRatio="xMidYMid meet">

<g transform="translate(0.000000,672.000000) scale(0.10000,-0.100000)"
fill="#9b870c " stroke="none">
<path d="M3475 6711 c-11 -5 -32 -22 -47 -38 -22 -23 -865 -1704 -1003 -2001
-27 -58 -45 -84 -59 -87 -12 -3 -367 -54 -791 -115 -423 -61 -882 -129 -1020
-150 -137 -21 -297 -46 -355 -55 -130 -20 -162 -33 -183 -78 -21 -43 -21 -79
-3 -115 16 -31 626 -638 1237 -1230 l426 -413 -24 -142 c-13 -78 -82 -486
-153 -907 -209 -1229 -215 -1274 -185 -1316 18 -26 74 -54 109 -54 28 0 322
145 736 363 129 68 431 226 670 352 239 125 493 259 563 296 l128 69 477 -252
c807 -425 1077 -565 1353 -704 253 -126 269 -132 302 -123 41 11 82 55 92 98
6 29 -68 479 -284 1731 l-100 575 247 245 c136 135 507 501 825 814 318 312
585 582 593 599 27 51 4 127 -49 162 -28 18 -188 44 -1088 174 -900 131 -1211
180 -1227 193 -7 6 -242 471 -521 1032 -347 697 -518 1030 -539 1049 -32 31
-92 44 -127 28z m526 -1319 c283 -569 488 -968 504 -985 15 -15 44 -31 64 -37
20 -5 236 -39 481 -75 886 -130 1338 -196 1483 -217 81 -12 147 -25 147 -29 0
-4 -174 -177 -387 -385 -214 -208 -563 -553 -777 -765 l-389 -387 6 -79 c5
-68 63 -417 292 -1773 29 -173 51 -317 48 -320 -5 -6 -279 135 -853 438 -641
339 -1063 552 -1094 552 -40 0 -424 -195 -1454 -737 -277 -146 -505 -264 -507
-262 -3 4 39 263 214 1289 118 696 142 856 132 882 -10 26 -812 824 -1261
1256 -162 156 -296 286 -298 290 -3 9 15 11 998 153 832 119 1112 164 1148
183 15 8 35 23 45 34 26 28 279 527 652 1285 176 356 322 647 325 647 3 0 219
-431 481 -958z"/>
</g>
</svg>
